<svg width="1200" height="720" viewBox="0 0 1200 720" fill="none" xmlns="http://www.w3.org/2000/svg">
  <rect width="1200" height="720" fill="#eef6ff"/>
  <g opacity=".5" stroke="#cbd5e1">
    <path d="M180 120H1020M180 200H1020M180 280H1020M180 360H1020M180 440H1020M180 520H1020"/>
    <path d="M180 120V520M300 120V520M420 120V520M540 120V520M660 120V520M780 120V520M900 120V520M1020 120V520"/>
  </g>
  <path d="M240 480C320 420 345 300 450 300C540 300 530 180 650 180C770 180 785 320 930 250" stroke="#10b981" stroke-width="26" stroke-linecap="round"/>
  <circle cx="240" cy="480" r="28" fill="#10b981"/>
  <circle cx="930" cy="250" r="28" fill="#3b82f6"/>
  <rect x="170" y="570" width="860" height="70" rx="24" fill="#ffffff" stroke="#1d1d1f" stroke-opacity=".08"/>
  <text x="220" y="617" fill="#1d1d1f" font-family="Inter, Arial, sans-serif" font-size="42" font-weight="700">Path Visualizer</text>
</svg>
