<svg xmlns="http://www.w3.org/2000/svg" width="1352" height="1068" viewBox="0 0 1352 1068">
  <rect width="1352" height="1068" fill="#ECF2FE"/>
  <g>
    <rect x="104" y="186" width="45" height="46" rx="9" fill="#55B685"/><rect x="156" y="186" width="45" height="46" rx="9" fill="#2B65C5"/><rect x="208" y="186" width="45" height="46" rx="9" fill="#2B65C5"/><rect x="260" y="186" width="45" height="46" rx="9" fill="#2B65C5"/><rect x="312" y="186" width="45" height="46" rx="9" fill="#2B65C5"/><rect x="364" y="186" width="45" height="46" rx="9" fill="#2B65C5"/><rect x="416" y="186" width="45" height="46" rx="9" fill="#1D1D1F"/><rect x="468" y="186" width="45" height="46" rx="9" fill="#EFF0F4"/><rect x="520" y="186" width="45" height="46" rx="9" fill="#EFF0F4"/><rect x="572" y="186" width="45" height="46" rx="9" fill="#1D1D1F"/><rect x="624" y="186" width="45" height="46" rx="9" fill="#2B65C5"/><rect x="676" y="186" width="45" height="46" rx="9" fill="#EFF0F4"/><rect x="728" y="186" width="45" height="46" rx="9" fill="#EFF0F4"/><rect x="780" y="186" width="45" height="46" rx="9" fill="#EFF0F4"/><rect x="832" y="186" width="45" height="46" rx="9" fill="#EFF0F4"/><rect x="884" y="186" width="45" height="46" rx="9" fill="#EFF0F4"/><rect x="936" y="186" width="45" height="46" rx="9" fill="#EFF0F4"/><rect x="988" y="186" width="45" height="46" rx="9" fill="#EFF0F4"/><rect x="1040" y="186" width="45" height="46" rx="9" fill="#EFF0F4"/><rect x="1092" y="186" width="45" height="46" rx="9" fill="#EFF0F4"/><rect x="1144" y="186" width="45" height="46" rx="9" fill="#EFF0F4"/><rect x="1196" y="186" width="45" height="46" rx="9" fill="#EFF0F4"/><rect x="104" y="238" width="45" height="46" rx="9" fill="#EFF0F4"/><rect x="156" y="238" width="45" height="46" rx="9" fill="#EFF0F4"/><rect x="208" y="238" width="45" height="46" rx="9" fill="#EFF0F4"/><rect x="260" y="238" width="45" height="46" rx="9" fill="#EFF0F4"/><rect x="312" y="238" width="45" height="46" rx="9" fill="#1D1D1F"/><rect x="364" y="238" width="45" height="46" rx="9" fill="#2B65C5"/><rect x="416" y="238" width="45" height="46" rx="9" fill="#1D1D1F"/><rect x="468" y="238" width="45" height="46" rx="9" fill="#EFF0F4"/><rect x="520" y="238" width="45" height="46" rx="9" fill="#EFF0F4"/><rect x="572" y="238" width="45" height="46" rx="9" fill="#1D1D1F"/><rect x="624" y="238" width="45" height="46" rx="9" fill="#2B65C5"/><rect x="676" y="238" width="45" height="46" rx="9" fill="#EFF0F4"/><rect x="728" y="238" width="45" height="46" rx="9" fill="#EFF0F4"/><rect x="780" y="238" width="45" height="46" rx="9" fill="#EFF0F4"/><rect x="832" y="238" width="45" height="46" rx="9" fill="#EFF0F4"/><rect x="884" y="238" width="45" height="46" rx="9" fill="#EFF0F4"/><rect x="936" y="238" width="45" height="46" rx="9" fill="#1D1D1F"/><rect x="988" y="238" width="45" height="46" rx="9" fill="#EFF0F4"/><rect x="1040" y="238" width="45" height="46" rx="9" fill="#EFF0F4"/><rect x="1092" y="238" width="45" height="46" rx="9" fill="#1D1D1F"/><rect x="1144" y="238" width="45" height="46" rx="9" fill="#EFF0F4"/><rect x="1196" y="238" width="45" height="46" rx="9" fill="#EFF0F4"/><rect x="104" y="290" width="45" height="46" rx="9" fill="#EFF0F4"/><rect x="156" y="290" width="45" height="46" rx="9" fill="#1D1D1F"/><rect x="208" y="290" width="45" height="46" rx="9" fill="#EFF0F4"/><rect x="260" y="290" width="45" height="46" rx="9" fill="#EFF0F4"/><rect x="312" y="290" width="45" height="46" rx="9" fill="#1D1D1F"/><rect x="364" y="290" width="45" height="46" rx="9" fill="#2B65C5"/><rect x="416" y="290" width="45" height="46" rx="9" fill="#1D1D1F"/><rect x="468" y="290" width="45" height="46" rx="9" fill="#1D1D1F"/><rect x="520" y="290" width="45" height="46" rx="9" fill="#1D1D1F"/><rect x="572" y="290" width="45" height="46" rx="9" fill="#1D1D1F"/><rect x="624" y="290" width="45" height="46" rx="9" fill="#2B65C5"/><rect x="676" y="290" width="45" height="46" rx="9" fill="#EFF0F4"/><rect x="728" y="290" width="45" height="46" rx="9" fill="#EFF0F4"/><rect x="780" y="290" width="45" height="46" rx="9" fill="#EFF0F4"/><rect x="832" y="290" width="45" height="46" rx="9" fill="#EFF0F4"/><rect x="884" y="290" width="45" height="46" rx="9" fill="#EFF0F4"/><rect x="936" y="290" width="45" height="46" rx="9" fill="#1D1D1F"/><rect x="988" y="290" width="45" height="46" rx="9" fill="#EFF0F4"/><rect x="1040" y="290" width="45" height="46" rx="9" fill="#EFF0F4"/><rect x="1092" y="290" width="45" height="46" rx="9" fill="#1D1D1F"/><rect x="1144" y="290" width="45" height="46" rx="9" fill="#EFF0F4"/><rect x="1196" y="290" width="45" height="46" rx="9" fill="#EFF0F4"/><rect x="104" y="342" width="45" height="46" rx="9" fill="#EFF0F4"/><rect x="156" y="342" width="45" height="46" rx="9" fill="#1D1D1F"/><rect x="208" y="342" width="45" height="46" rx="9" fill="#EFF0F4"/><rect x="260" y="342" width="45" height="46" rx="9" fill="#EFF0F4"/><rect x="312" y="342" width="45" height="46" rx="9" fill="#1D1D1F"/><rect x="364" y="342" width="45" height="46" rx="9" fill="#2B65C5"/><rect x="416" y="342" width="45" height="46" rx="9" fill="#EFF0F4"/><rect x="468" y="342" width="45" height="46" rx="9" fill="#EFF0F4"/><rect x="520" y="342" width="45" height="46" rx="9" fill="#EFF0F4"/><rect x="572" y="342" width="45" height="46" rx="9" fill="#EFF0F4"/><rect x="624" y="342" width="45" height="46" rx="9" fill="#2B65C5"/><rect x="676" y="342" width="45" height="46" rx="9" fill="#1D1D1F"/><rect x="728" y="342" width="45" height="46" rx="9" fill="#1D1D1F"/><rect x="780" y="342" width="45" height="46" rx="9" fill="#1D1D1F"/><rect x="832" y="342" width="45" height="46" rx="9" fill="#1D1D1F"/><rect x="884" y="342" width="45" height="46" rx="9" fill="#EFF0F4"/><rect x="936" y="342" width="45" height="46" rx="9" fill="#1D1D1F"/><rect x="988" y="342" width="45" height="46" rx="9" fill="#EFF0F4"/><rect x="1040" y="342" width="45" height="46" rx="9" fill="#EFF0F4"/><rect x="1092" y="342" width="45" height="46" rx="9" fill="#1D1D1F"/><rect x="1144" y="342" width="45" height="46" rx="9" fill="#EFF0F4"/><rect x="1196" y="342" width="45" height="46" rx="9" fill="#EFF0F4"/><rect x="104" y="394" width="45" height="46" rx="9" fill="#EFF0F4"/><rect x="156" y="394" width="45" height="46" rx="9" fill="#1D1D1F"/><rect x="208" y="394" width="45" height="46" rx="9" fill="#1D1D1F"/><rect x="260" y="394" width="45" height="46" rx="9" fill="#1D1D1F"/><rect x="312" y="394" width="45" height="46" rx="9" fill="#1D1D1F"/><rect x="364" y="394" width="45" height="46" rx="9" fill="#2B65C5"/><rect x="416" y="394" width="45" height="46" rx="9" fill="#EFF0F4"/><rect x="468" y="394" width="45" height="46" rx="9" fill="#EFF0F4"/><rect x="520" y="394" width="45" height="46" rx="9" fill="#EFF0F4"/><rect x="572" y="394" width="45" height="46" rx="9" fill="#EFF0F4"/><rect x="624" y="394" width="45" height="46" rx="9" fill="#2B65C5"/><rect x="676" y="394" width="45" height="46" rx="9" fill="#EFF0F4"/><rect x="728" y="394" width="45" height="46" rx="9" fill="#EFF0F4"/><rect x="780" y="394" width="45" height="46" rx="9" fill="#EFF0F4"/><rect x="832" y="394" width="45" height="46" rx="9" fill="#1D1D1F"/><rect x="884" y="394" width="45" height="46" rx="9" fill="#EFF0F4"/><rect x="936" y="394" width="45" height="46" rx="9" fill="#1D1D1F"/><rect x="988" y="394" width="45" height="46" rx="9" fill="#1D1D1F"/><rect x="1040" y="394" width="45" height="46" rx="9" fill="#1D1D1F"/><rect x="1092" y="394" width="45" height="46" rx="9" fill="#1D1D1F"/><rect x="1144" y="394" width="45" height="46" rx="9" fill="#EFF0F4"/><rect x="1196" y="394" width="45" height="46" rx="9" fill="#EFF0F4"/><rect x="104" y="446" width="45" height="46" rx="9" fill="#EFF0F4"/><rect x="156" y="446" width="45" height="46" rx="9" fill="#EFF0F4"/><rect x="208" y="446" width="45" height="46" rx="9" fill="#EFF0F4"/><rect x="260" y="446" width="45" height="46" rx="9" fill="#EFF0F4"/><rect x="312" y="446" width="45" height="46" rx="9" fill="#EFF0F4"/><rect x="364" y="446" width="45" height="46" rx="9" fill="#2B65C5"/><rect x="416" y="446" width="45" height="46" rx="9" fill="#EFF0F4"/><rect x="468" y="446" width="45" height="46" rx="9" fill="#EFF0F4"/><rect x="520" y="446" width="45" height="46" rx="9" fill="#EFF0F4"/><rect x="572" y="446" width="45" height="46" rx="9" fill="#EFF0F4"/><rect x="624" y="446" width="45" height="46" rx="9" fill="#2B65C5"/><rect x="676" y="446" width="45" height="46" rx="9" fill="#EFF0F4"/><rect x="728" y="446" width="45" height="46" rx="9" fill="#EFF0F4"/><rect x="780" y="446" width="45" height="46" rx="9" fill="#EFF0F4"/><rect x="832" y="446" width="45" height="46" rx="9" fill="#1D1D1F"/><rect x="884" y="446" width="45" height="46" rx="9" fill="#EFF0F4"/><rect x="936" y="446" width="45" height="46" rx="9" fill="#EFF0F4"/><rect x="988" y="446" width="45" height="46" rx="9" fill="#EFF0F4"/><rect x="1040" y="446" width="45" height="46" rx="9" fill="#EFF0F4"/><rect x="1092" y="446" width="45" height="46" rx="9" fill="#EFF0F4"/><rect x="1144" y="446" width="45" height="46" rx="9" fill="#EFF0F4"/><rect x="1196" y="446" width="45" height="46" rx="9" fill="#EFF0F4"/><rect x="104" y="498" width="45" height="46" rx="9" fill="#EFF0F4"/><rect x="156" y="498" width="45" height="46" rx="9" fill="#EFF0F4"/><rect x="208" y="498" width="45" height="46" rx="9" fill="#EFF0F4"/><rect x="260" y="498" width="45" height="46" rx="9" fill="#EFF0F4"/><rect x="312" y="498" width="45" height="46" rx="9" fill="#EFF0F4"/><rect x="364" y="498" width="45" height="46" rx="9" fill="#2B65C5"/><rect x="416" y="498" width="45" height="46" rx="9" fill="#2B65C5"/><rect x="468" y="498" width="45" height="46" rx="9" fill="#2B65C5"/><rect x="520" y="498" width="45" height="46" rx="9" fill="#2B65C5"/><rect x="572" y="498" width="45" height="46" rx="9" fill="#2B65C5"/><rect x="624" y="498" width="45" height="46" rx="9" fill="#2B65C5"/><rect x="676" y="498" width="45" height="46" rx="9" fill="#1D1D1F"/><rect x="728" y="498" width="45" height="46" rx="9" fill="#1D1D1F"/><rect x="780" y="498" width="45" height="46" rx="9" fill="#1D1D1F"/><rect x="832" y="498" width="45" height="46" rx="9" fill="#1D1D1F"/><rect x="884" y="498" width="45" height="46" rx="9" fill="#EFF0F4"/><rect x="936" y="498" width="45" height="46" rx="9" fill="#EFF0F4"/><rect x="988" y="498" width="45" height="46" rx="9" fill="#EFF0F4"/><rect x="1040" y="498" width="45" height="46" rx="9" fill="#EFF0F4"/><rect x="1092" y="498" width="45" height="46" rx="9" fill="#EFF0F4"/><rect x="1144" y="498" width="45" height="46" rx="9" fill="#EFF0F4"/><rect x="1196" y="498" width="45" height="46" rx="9" fill="#EFF0F4"/><rect x="104" y="550" width="45" height="46" rx="9" fill="#EFF0F4"/><rect x="156" y="550" width="45" height="46" rx="9" fill="#EFF0F4"/><rect x="208" y="550" width="45" height="46" rx="9" fill="#1D1D1F"/><rect x="260" y="550" width="45" height="46" rx="9" fill="#1D1D1F"/><rect x="312" y="550" width="45" height="46" rx="9" fill="#1D1D1F"/><rect x="364" y="550" width="45" height="46" rx="9" fill="#1D1D1F"/><rect x="416" y="550" width="45" height="46" rx="9" fill="#1D1D1F"/><rect x="468" y="550" width="45" height="46" rx="9" fill="#1D1D1F"/><rect x="520" y="550" width="45" height="46" rx="9" fill="#1D1D1F"/><rect x="572" y="550" width="45" height="46" rx="9" fill="#EFF0F4"/><rect x="624" y="550" width="45" height="46" rx="9" fill="#2B65C5"/><rect x="676" y="550" width="45" height="46" rx="9" fill="#2B65C5"/><rect x="728" y="550" width="45" height="46" rx="9" fill="#2B65C5"/><rect x="780" y="550" width="45" height="46" rx="9" fill="#2B65C5"/><rect x="832" y="550" width="45" height="46" rx="9" fill="#2B65C5"/><rect x="884" y="550" width="45" height="46" rx="9" fill="#2B65C5"/><rect x="936" y="550" width="45" height="46" rx="9" fill="#2B65C5"/><rect x="988" y="550" width="45" height="46" rx="9" fill="#1D1D1F"/><rect x="1040" y="550" width="45" height="46" rx="9" fill="#1D1D1F"/><rect x="1092" y="550" width="45" height="46" rx="9" fill="#1D1D1F"/><rect x="1144" y="550" width="45" height="46" rx="9" fill="#1D1D1F"/><rect x="1196" y="550" width="45" height="46" rx="9" fill="#EFF0F4"/><rect x="104" y="602" width="45" height="46" rx="9" fill="#EFF0F4"/><rect x="156" y="602" width="45" height="46" rx="9" fill="#EFF0F4"/><rect x="208" y="602" width="45" height="46" rx="9" fill="#EFF0F4"/><rect x="260" y="602" width="45" height="46" rx="9" fill="#EFF0F4"/><rect x="312" y="602" width="45" height="46" rx="9" fill="#EFF0F4"/><rect x="364" y="602" width="45" height="46" rx="9" fill="#EFF0F4"/><rect x="416" y="602" width="45" height="46" rx="9" fill="#EFF0F4"/><rect x="468" y="602" width="45" height="46" rx="9" fill="#EFF0F4"/><rect x="520" y="602" width="45" height="46" rx="9" fill="#EFF0F4"/><rect x="572" y="602" width="45" height="46" rx="9" fill="#EFF0F4"/><rect x="624" y="602" width="45" height="46" rx="9" fill="#1D1D1F"/><rect x="676" y="602" width="45" height="46" rx="9" fill="#EFF0F4"/><rect x="728" y="602" width="45" height="46" rx="9" fill="#EFF0F4"/><rect x="780" y="602" width="45" height="46" rx="9" fill="#EFF0F4"/><rect x="832" y="602" width="45" height="46" rx="9" fill="#EFF0F4"/><rect x="884" y="602" width="45" height="46" rx="9" fill="#EFF0F4"/><rect x="936" y="602" width="45" height="46" rx="9" fill="#2B65C5"/><rect x="988" y="602" width="45" height="46" rx="9" fill="#EFF0F4"/><rect x="1040" y="602" width="45" height="46" rx="9" fill="#EFF0F4"/><rect x="1092" y="602" width="45" height="46" rx="9" fill="#EFF0F4"/><rect x="1144" y="602" width="45" height="46" rx="9" fill="#EFF0F4"/><rect x="1196" y="602" width="45" height="46" rx="9" fill="#EFF0F4"/><rect x="104" y="654" width="45" height="46" rx="9" fill="#EFF0F4"/><rect x="156" y="654" width="45" height="46" rx="9" fill="#EFF0F4"/><rect x="208" y="654" width="45" height="46" rx="9" fill="#EFF0F4"/><rect x="260" y="654" width="45" height="46" rx="9" fill="#EFF0F4"/><rect x="312" y="654" width="45" height="46" rx="9" fill="#EFF0F4"/><rect x="364" y="654" width="45" height="46" rx="9" fill="#EFF0F4"/><rect x="416" y="654" width="45" height="46" rx="9" fill="#EFF0F4"/><rect x="468" y="654" width="45" height="46" rx="9" fill="#EFF0F4"/><rect x="520" y="654" width="45" height="46" rx="9" fill="#EFF0F4"/><rect x="572" y="654" width="45" height="46" rx="9" fill="#EFF0F4"/><rect x="624" y="654" width="45" height="46" rx="9" fill="#1D1D1F"/><rect x="676" y="654" width="45" height="46" rx="9" fill="#1D1D1F"/><rect x="728" y="654" width="45" height="46" rx="9" fill="#1D1D1F"/><rect x="780" y="654" width="45" height="46" rx="9" fill="#1D1D1F"/><rect x="832" y="654" width="45" height="46" rx="9" fill="#1D1D1F"/><rect x="884" y="654" width="45" height="46" rx="9" fill="#1D1D1F"/><rect x="936" y="654" width="45" height="46" rx="9" fill="#2B65C5"/><rect x="988" y="654" width="45" height="46" rx="9" fill="#EFF0F4"/><rect x="1040" y="654" width="45" height="46" rx="9" fill="#EFF0F4"/><rect x="1092" y="654" width="45" height="46" rx="9" fill="#EFF0F4"/><rect x="1144" y="654" width="45" height="46" rx="9" fill="#EFF0F4"/><rect x="1196" y="654" width="45" height="46" rx="9" fill="#EFF0F4"/><rect x="104" y="706" width="45" height="46" rx="9" fill="#EFF0F4"/><rect x="156" y="706" width="45" height="46" rx="9" fill="#EFF0F4"/><rect x="208" y="706" width="45" height="46" rx="9" fill="#EFF0F4"/><rect x="260" y="706" width="45" height="46" rx="9" fill="#1D1D1F"/><rect x="312" y="706" width="45" height="46" rx="9" fill="#EFF0F4"/><rect x="364" y="706" width="45" height="46" rx="9" fill="#EFF0F4"/><rect x="416" y="706" width="45" height="46" rx="9" fill="#EFF0F4"/><rect x="468" y="706" width="45" height="46" rx="9" fill="#EFF0F4"/><rect x="520" y="706" width="45" height="46" rx="9" fill="#EFF0F4"/><rect x="572" y="706" width="45" height="46" rx="9" fill="#EFF0F4"/><rect x="624" y="706" width="45" height="46" rx="9" fill="#EFF0F4"/><rect x="676" y="706" width="45" height="46" rx="9" fill="#EFF0F4"/><rect x="728" y="706" width="45" height="46" rx="9" fill="#EFF0F4"/><rect x="780" y="706" width="45" height="46" rx="9" fill="#EFF0F4"/><rect x="832" y="706" width="45" height="46" rx="9" fill="#EFF0F4"/><rect x="884" y="706" width="45" height="46" rx="9" fill="#EFF0F4"/><rect x="936" y="706" width="45" height="46" rx="9" fill="#2B65C5"/><rect x="988" y="706" width="45" height="46" rx="9" fill="#EFF0F4"/><rect x="1040" y="706" width="45" height="46" rx="9" fill="#EFF0F4"/><rect x="1092" y="706" width="45" height="46" rx="9" fill="#EFF0F4"/><rect x="1144" y="706" width="45" height="46" rx="9" fill="#EFF0F4"/><rect x="1196" y="706" width="45" height="46" rx="9" fill="#EFF0F4"/><rect x="104" y="758" width="45" height="46" rx="9" fill="#EFF0F4"/><rect x="156" y="758" width="45" height="46" rx="9" fill="#EFF0F4"/><rect x="208" y="758" width="45" height="46" rx="9" fill="#EFF0F4"/><rect x="260" y="758" width="45" height="46" rx="9" fill="#1D1D1F"/><rect x="312" y="758" width="45" height="46" rx="9" fill="#1D1D1F"/><rect x="364" y="758" width="45" height="46" rx="9" fill="#1D1D1F"/><rect x="416" y="758" width="45" height="46" rx="9" fill="#1D1D1F"/><rect x="468" y="758" width="45" height="46" rx="9" fill="#1D1D1F"/><rect x="520" y="758" width="45" height="46" rx="9" fill="#1D1D1F"/><rect x="572" y="758" width="45" height="46" rx="9" fill="#1D1D1F"/><rect x="624" y="758" width="45" height="46" rx="9" fill="#EFF0F4"/><rect x="676" y="758" width="45" height="46" rx="9" fill="#EFF0F4"/><rect x="728" y="758" width="45" height="46" rx="9" fill="#1D1D1F"/><rect x="780" y="758" width="45" height="46" rx="9" fill="#1D1D1F"/><rect x="832" y="758" width="45" height="46" rx="9" fill="#1D1D1F"/><rect x="884" y="758" width="45" height="46" rx="9" fill="#1D1D1F"/><rect x="936" y="758" width="45" height="46" rx="9" fill="#1D1D1F"/><rect x="988" y="758" width="45" height="46" rx="9" fill="#1D1D1F"/><rect x="1040" y="758" width="45" height="46" rx="9" fill="#1D1D1F"/><rect x="1092" y="758" width="45" height="46" rx="9" fill="#EFF0F4"/><rect x="1144" y="758" width="45" height="46" rx="9" fill="#EFF0F4"/><rect x="1196" y="758" width="45" height="46" rx="9" fill="#EFF0F4"/><rect x="104" y="810" width="45" height="46" rx="9" fill="#EFF0F4"/><rect x="156" y="810" width="45" height="46" rx="9" fill="#EFF0F4"/><rect x="208" y="810" width="45" height="46" rx="9" fill="#EFF0F4"/><rect x="260" y="810" width="45" height="46" rx="9" fill="#EFF0F4"/><rect x="312" y="810" width="45" height="46" rx="9" fill="#EFF0F4"/><rect x="364" y="810" width="45" height="46" rx="9" fill="#EFF0F4"/><rect x="416" y="810" width="45" height="46" rx="9" fill="#EFF0F4"/><rect x="468" y="810" width="45" height="46" rx="9" fill="#EFF0F4"/><rect x="520" y="810" width="45" height="46" rx="9" fill="#EFF0F4"/><rect x="572" y="810" width="45" height="46" rx="9" fill="#EFF0F4"/><rect x="624" y="810" width="45" height="46" rx="9" fill="#EFF0F4"/><rect x="676" y="810" width="45" height="46" rx="9" fill="#EFF0F4"/><rect x="728" y="810" width="45" height="46" rx="9" fill="#EFF0F4"/><rect x="780" y="810" width="45" height="46" rx="9" fill="#EFF0F4"/><rect x="832" y="810" width="45" height="46" rx="9" fill="#EFF0F4"/><rect x="884" y="810" width="45" height="46" rx="9" fill="#EFF0F4"/><rect x="936" y="810" width="45" height="46" rx="9" fill="#2B65C5"/><rect x="988" y="810" width="45" height="46" rx="9" fill="#EFF0F4"/><rect x="1040" y="810" width="45" height="46" rx="9" fill="#EFF0F4"/><rect x="1092" y="810" width="45" height="46" rx="9" fill="#EFF0F4"/><rect x="1144" y="810" width="45" height="46" rx="9" fill="#EFF0F4"/><rect x="1196" y="810" width="45" height="46" rx="9" fill="#EFF0F4"/><rect x="104" y="862" width="45" height="46" rx="9" fill="#EFF0F4"/><rect x="156" y="862" width="45" height="46" rx="9" fill="#EFF0F4"/><rect x="208" y="862" width="45" height="46" rx="9" fill="#EFF0F4"/><rect x="260" y="862" width="45" height="46" rx="9" fill="#EFF0F4"/><rect x="312" y="862" width="45" height="46" rx="9" fill="#EFF0F4"/><rect x="364" y="862" width="45" height="46" rx="9" fill="#EFF0F4"/><rect x="416" y="862" width="45" height="46" rx="9" fill="#EFF0F4"/><rect x="468" y="862" width="45" height="46" rx="9" fill="#EFF0F4"/><rect x="520" y="862" width="45" height="46" rx="9" fill="#EFF0F4"/><rect x="572" y="862" width="45" height="46" rx="9" fill="#EFF0F4"/><rect x="624" y="862" width="45" height="46" rx="9" fill="#EFF0F4"/><rect x="676" y="862" width="45" height="46" rx="9" fill="#EFF0F4"/><rect x="728" y="862" width="45" height="46" rx="9" fill="#EFF0F4"/><rect x="780" y="862" width="45" height="46" rx="9" fill="#EFF0F4"/><rect x="832" y="862" width="45" height="46" rx="9" fill="#EFF0F4"/><rect x="884" y="862" width="45" height="46" rx="9" fill="#EFF0F4"/><rect x="936" y="862" width="45" height="46" rx="9" fill="#2B65C5"/><rect x="988" y="862" width="45" height="46" rx="9" fill="#2B65C5"/><rect x="1040" y="862" width="45" height="46" rx="9" fill="#2B65C5"/><rect x="1092" y="862" width="45" height="46" rx="9" fill="#2B65C5"/><rect x="1144" y="862" width="45" height="46" rx="9" fill="#2B65C5"/><rect x="1196" y="862" width="45" height="46" rx="9" fill="#E97B35"/>
  </g>
</svg>
